<svg width="250" height="250" viewBox="0 0 250 250" fill="none" xmlns="http://www.w3.org/2000/svg">
<path d="M2.07991 191.314L58.1995 128.758L115.655 64.7127L171.774 2.1565C172.143 1.7454 172.775 1.71111 173.186 2.07991L234.254 56.8639C234.665 57.2327 234.699 57.865 234.33 58.2761L179.546 119.344C178.44 120.577 178.543 122.474 179.776 123.58L240.843 178.364C241.255 178.733 241.289 179.365 240.92 179.776L186.136 240.844C185.767 241.255 185.135 241.289 184.724 240.92L123.657 186.136C122.423 185.03 120.527 185.133 119.42 186.366L64.6361 247.433C64.2673 247.844 63.635 247.879 63.2239 247.51L2.1565 192.726C1.7454 192.357 1.71111 191.725 2.07991 191.314Z" fill="#24283B" stroke="#414868" stroke-width="2"/>
<g opacity="0.8">
<path d="M60.2606 131.191V87.3646L124.166 45.984L188.071 87.3646V131.191L124.166 89.6069L60.2606 131.191Z" fill="#3273FA"/>
<path d="M155.567 174.402H93.9632L84.0878 203.559H42L66.1311 143.366H184.634L208 203.559H165.442L155.567 174.402ZM145.221 143.366L124.882 143.365L104.544 143.366H145.221Z" fill="white"/>
</g>
</svg>
